<?xml version="1.0"?>
<svg xmlns="http://www.w3.org/2000/svg" xmlns:xlink="http://www.w3.org/1999/xlink" xmlns:svgjs="http://svgjs.com/svgjs" version="1.1" width="512" height="512" x="0" y="0" viewBox="0 0 770.34 770.34" style="enable-background:new 0 0 512 512" xml:space="preserve" class=""><g>
	<g xmlns="http://www.w3.org/2000/svg">
		<g>
			<polygon points="385.17,74.597 0,391.388 42.813,443.44 385.17,161.861 727.527,443.44 770.34,391.388   " fill="#ffffff" data-original="#000000" style="" class=""/>
			<path d="M385.226,226.764l-248.622,205.19v193.396v58.219v12.174h174.432V562.53c-0.074,0-0.146,0-0.222,0    c0-16.764,0-31.58,0-49.834c0.073,0,0.146,0,0.222,0v-25.465c0-17.629,0-33.473,0-53.518c17.587,0,31.355,0,48.094,0h100.54    v262.027h174.066v-11.424v-58.967V432.702L385.226,226.764L385.226,226.764z" fill="#ffffff" data-original="#000000" style="" class=""/>
		</g>
	</g>
	<g xmlns="http://www.w3.org/2000/svg">
	</g>
	<g xmlns="http://www.w3.org/2000/svg">
	</g>
	<g xmlns="http://www.w3.org/2000/svg">
	</g>
	<g xmlns="http://www.w3.org/2000/svg">
	</g>
	<g xmlns="http://www.w3.org/2000/svg">
	</g>
	<g xmlns="http://www.w3.org/2000/svg">
	</g>
	<g xmlns="http://www.w3.org/2000/svg">
	</g>
	<g xmlns="http://www.w3.org/2000/svg">
	</g>
	<g xmlns="http://www.w3.org/2000/svg">
	</g>
	<g xmlns="http://www.w3.org/2000/svg">
	</g>
	<g xmlns="http://www.w3.org/2000/svg">
	</g>
	<g xmlns="http://www.w3.org/2000/svg">
	</g>
	<g xmlns="http://www.w3.org/2000/svg">
	</g>
	<g xmlns="http://www.w3.org/2000/svg">
	</g>
	<g xmlns="http://www.w3.org/2000/svg">
	</g>
	</g>
</svg>
